<?xml version="1.0" encoding="UTF-8" standalone="no"?>
<svg
   version="1.0"
   width="800.000000pt"
   height="534.000000pt"
   viewBox="0 0 800.000000 534.000000"
   preserveAspectRatio="xMidYMid meet"
   id="svg148"
   sodipodi:docname="logo-green.svg"
   inkscape:version="1.3.2 (091e20e, 2023-11-25, custom)"
   xmlns:inkscape="http://www.inkscape.org/namespaces/inkscape"
   xmlns:sodipodi="http://sodipodi.sourceforge.net/DTD/sodipodi-0.dtd"
   xmlns="http://www.w3.org/2000/svg"
   xmlns:svg="http://www.w3.org/2000/svg">
  <defs
     id="defs148" />
  <sodipodi:namedview
     id="namedview148"
     pagecolor="#ffffff"
     bordercolor="#666666"
     borderopacity="1.0"
     inkscape:showpageshadow="2"
     inkscape:pageopacity="0.0"
     inkscape:pagecheckerboard="0"
     inkscape:deskcolor="#d1d1d1"
     inkscape:document-units="pt"
     inkscape:zoom="1.0575843"
     inkscape:cx="533.29084"
     inkscape:cy="356"
     inkscape:window-width="1920"
     inkscape:window-height="991"
     inkscape:window-x="-9"
     inkscape:window-y="1071"
     inkscape:window-maximized="1"
     inkscape:current-layer="svg148" />
  <g
     transform="translate(0.000000,534.000000) scale(0.100000,-0.100000)"
     fill="#000000"
     stroke="none"
     id="g148"
     style="fill:#24a134;fill-opacity:1">
    <path
       d="M4251 5053 c-36 -42 -39 -69 -11 -123 23 -44 19 -43 110 -30 36 5 98 6 138 2 52 -6 75 -5 82 4 12 14 -4 29 -42 38 -17 4 -25 11 -22 19 8 23 -33 63 -98 96 -85 42 -117 41 -157 -6z"
       id="path1"
       style="fill:#24a134;fill-opacity:1" />
    <path
       d="M3930 5064 c-91 -24 -107 -33 -123 -72 l-15 -37 -1 32 c-1 17 -6 35 -11 38 -13 8 -120 -42 -120 -55 0 -6 -9 -10 -20 -10 -12 0 -34 -10 -50 -22 -23 -17 -33 -19 -42 -10 -23 23 -47 12 -110 -48 -35 -33 -68 -58 -75 -56 -13 5 -35 -10 -97 -67 l-39 -36 32 -40 c24 -30 42 -42 69 -47 52 -8 54 -8 85 0 22 7 27 14 27 40 0 17 -8 45 -18 61 -25 42 -33 65 -22 65 5 0 17 -14 25 -31 13 -24 22 -30 42 -27 23 3 28 10 40 61 21 96 34 103 31 17 -3 -69 -1 -75 17 -78 28 -4 82 44 96 85 10 31 8 53 -8 107 -3 11 -1 16 5 12 6 -4 14 -28 18 -54 12 -87 31 -91 102 -22 43 42 57 50 89 50 21 0 48 -7 60 -15 19 -14 21 -13 27 8 6 25 43 47 77 47 18 0 60 39 83 78 23 40 -70 54 -174 26z m-320 -214 c0 -5 -4 -10 -10 -10 -5 0 -10 5 -10 10 0 6 5 10 10 10 6 0 10 -4 10 -10z m-220 -125 c0 -8 -4 -15 -10 -15 -5 0 -10 7 -10 15 0 8 5 15 10 15 6 0 10 -7 10 -15z"
       id="path2"
       style="fill:#24a134;fill-opacity:1" />
    <path
       d="M4177 5060 c-46 -28 -117 -112 -117 -138 0 -13 10 -37 21 -54 20 -27 26 -30 63 -25 23 2 53 10 69 16 l28 11 -21 39 c-22 44 -26 91 -10 122 6 11 7 25 3 33 -7 11 -13 10 -36 -4z m-22 -150 c-3 -5 -15 -10 -26 -10 -11 0 -17 5 -14 10 3 6 15 10 26 10 11 0 17 -4 14 -10z"
       id="path3"
       style="fill:#24a134;fill-opacity:1" />
    <path
       d="M3966 4918 c-9 -12 -16 -28 -16 -34 0 -20 50 -74 69 -74 25 0 42 20 32 39 -5 9 -11 33 -15 54 -6 31 -11 37 -31 37 -13 0 -31 -10 -39 -22z"
       id="path4"
       style="fill:#24a134;fill-opacity:1" />
    <path
       d="M3779 4861 c-44 -44 -48 -60 -19 -86 32 -29 101 -31 154 -5 25 12 46 26 46 31 0 15 -38 82 -52 91 -7 4 -30 8 -52 8 -31 0 -45 -7 -77 -39z"
       id="path5"
       style="fill:#24a134;fill-opacity:1" />
    <path
       d="M4350 4869 c-65 -11 -90 -29 -39 -29 18 0 49 -9 67 -20 41 -25 117 -28 108 -4 -3 9 -6 18 -6 20 0 2 -17 4 -37 4 -34 1 -36 2 -20 14 16 12 16 14 1 20 -8 3 -16 5 -17 5 -1 -1 -27 -5 -57 -10z"
       id="path6"
       style="fill:#24a134;fill-opacity:1" />
    <path
       d="M4528 4873 c7 -3 16 -2 19 1 4 3 -2 6 -13 5 -11 0 -14 -3 -6 -6z"
       id="path7"
       style="fill:#24a134;fill-opacity:1" />
    <path
       d="M4175 4803 c-21 -23 -25 -38 -25 -84 l0 -57 53 -5 c28 -3 68 -9 88 -12 26 -5 39 -3 48 9 8 9 20 16 28 16 8 0 13 6 11 13 -3 6 -31 16 -64 20 -32 5 -60 10 -62 12 -2 2 2 12 9 23 10 17 10 23 -1 37 -13 16 -9 17 47 13 70 -3 71 -1 5 24 -68 26 -106 23 -137 -9z"
       id="path8"
       style="fill:#24a134;fill-opacity:1" />
    <path
       d="M4060 4793 c-41 -21 -61 -56 -58 -98 3 -25 8 -30 34 -33 16 -2 42 1 56 7 22 8 27 17 30 58 2 26 6 55 9 63 6 22 -30 23 -71 3z m31 -46 c-1 -12 -15 -9 -19 4 -3 6 1 10 8 8 6 -3 11 -8 11 -12z"
       id="path9"
       style="fill:#24a134;fill-opacity:1" />
    <path
       d="M3653 4773 c-16 -16 -37 -32 -46 -38 -29 -17 -11 -53 30 -61 42 -8 76 6 99 41 16 25 16 27 -11 55 -16 17 -32 30 -35 30 -4 0 -20 -12 -37 -27z m57 -12 c0 -11 -4 -23 -10 -26 -6 -3 -7 1 -4 9 3 9 1 16 -5 16 -6 0 -11 5 -11 10 0 6 7 10 15 10 8 0 15 -9 15 -19z"
       id="path10"
       style="fill:#24a134;fill-opacity:1" />
    <path
       d="M3925 4749 c-22 -10 -53 -19 -68 -19 -33 0 -43 -20 -29 -58 6 -15 13 -39 16 -54 8 -36 24 -35 82 2 40 25 47 35 51 67 2 21 4 47 6 57 3 26 -11 27 -58 5z"
       id="path11"
       style="fill:#24a134;fill-opacity:1" />
    <path
       d="M3478 4727 c-27 -11 -29 -20 -13 -73 8 -27 44 -21 82 12 33 29 36 35 23 48 -21 19 -61 25 -92 13z m27 -27 c-3 -5 -12 -10 -18 -10 -7 0 -6 4 3 10 19 12 23 12 15 0z"
       id="path12"
       style="fill:#24a134;fill-opacity:1" />
    <path
       d="M3760 4720 c0 -23 35 -28 43 -6 7 18 -1 26 -25 26 -11 0 -18 -7 -18 -20z"
       id="path13"
       style="fill:#24a134;fill-opacity:1" />
    <path
       d="M3176 4690 c-27 -32 -57 -90 -47 -90 6 0 11 -10 11 -23 0 -38 45 -77 88 -77 50 0 62 14 62 75 0 46 -4 54 -36 83 -19 17 -33 36 -30 41 10 16 -34 8 -48 -9z"
       id="path14"
       style="fill:#24a134;fill-opacity:1" />
    <path
       d="M3737 4683 c-27 -27 19 -126 56 -121 19 3 22 9 20 45 -2 55 -18 83 -47 83 -12 0 -26 -3 -29 -7z"
       id="path15"
       style="fill:#24a134;fill-opacity:1" />
    <path
       d="M3551 4641 c-29 -29 -27 -51 5 -51 35 0 85 31 82 50 -5 24 -63 25 -87 1z"
       id="path16"
       style="fill:#24a134;fill-opacity:1" />
    <path
       d="M3687 4639 c-39 -23 -67 -60 -67 -92 0 -18 5 -38 11 -44 17 -17 67 -4 95 24 l25 25 -23 48 c-20 41 -26 47 -41 39z"
       id="path17"
       style="fill:#24a134;fill-opacity:1" />
    <path
       d="M4034 4626 c-7 -17 27 -88 44 -94 17 -5 5 49 -14 64 -19 15 -18 32 4 37 12 4 11 5 -6 6 -12 0 -25 -5 -28 -13z"
       id="path18"
       style="fill:#24a134;fill-opacity:1" />
    <path
       d="M4142 4613 c2 -20 9 -29 25 -31 19 -3 21 0 14 25 -4 15 -15 30 -25 31 -14 3 -17 -2 -14 -25z"
       id="path19"
       style="fill:#24a134;fill-opacity:1" />
    <path
       d="M3426 4617 c-17 -12 -17 -17 -5 -53 7 -21 14 -40 15 -42 2 -4 45 37 63 61 12 15 12 19 -5 32 -24 18 -45 19 -68 2z"
       id="path20"
       style="fill:#24a134;fill-opacity:1" />
    <path
       d="M3317 4614 c-14 -14 -7 -43 16 -70 19 -22 29 -26 50 -20 32 8 35 34 10 64 -19 23 -64 38 -76 26z"
       id="path21"
       style="fill:#24a134;fill-opacity:1" />
    <path
       d="M3933 4600 c-53 -24 -66 -46 -45 -79 17 -28 41 -51 54 -51 4 0 8 25 8 56 l0 56 20 -24 c11 -12 27 -32 34 -43 18 -26 33 -12 18 18 -6 12 -15 35 -19 51 -12 37 -18 39 -70 16z"
       id="path22"
       style="fill:#24a134;fill-opacity:1" />
    <path
       d="M4107 4590 c7 -40 10 -46 20 -37 3 4 -1 22 -10 40 l-16 32 6 -35z"
       id="path23"
       style="fill:#24a134;fill-opacity:1" />
    <path
       d="M3085 4550 c-10 -22 -21 -40 -25 -40 -11 0 -48 -91 -61 -150 -6 -30 -17 -64 -24 -75 -12 -21 -27 -101 -25 -145 0 -14 -5 -37 -10 -51 -8 -18 -8 -38 1 -70 6 -24 11 -58 10 -76 0 -17 6 -38 14 -47 8 -8 12 -21 9 -29 -3 -8 11 -40 31 -71 20 -31 33 -60 31 -65 -3 -5 -22 -12 -41 -15 -33 -7 -50 -26 -22 -26 13 0 29 -22 61 -85 12 -22 38 -61 59 -86 20 -25 37 -53 37 -62 0 -13 14 -15 81 -15 85 0 120 8 145 33 41 41 308 80 328 47 2 -4 -21 -7 -52 -8 -109 -1 -221 -23 -264 -52 -35 -22 -55 -27 -133 -32 -123 -7 -133 -15 -138 -119 l-3 -76 -2 83 c-1 46 3 92 9 104 15 29 5 58 -39 109 -21 24 -44 60 -52 79 -7 19 -24 46 -38 60 -24 24 -29 25 -116 20 -96 -6 -200 -42 -212 -74 -8 -22 -35 -27 -74 -15 -19 5 -63 12 -97 14 -69 4 -132 23 -184 54 -19 11 -70 38 -114 59 -44 21 -86 46 -94 55 -7 9 -19 17 -26 17 -7 0 -23 8 -36 18 -25 20 -102 42 -141 41 l-23 0 22 -16 c13 -8 23 -22 23 -30 0 -12 3 -13 15 -3 16 13 33 6 53 -22 7 -10 24 -18 37 -18 14 0 31 -11 43 -27 17 -24 22 -26 36 -13 15 12 18 11 23 -8 3 -12 11 -22 19 -22 7 0 17 -8 23 -17 9 -16 13 -16 32 -5 20 13 21 12 16 -10 -6 -22 -4 -23 38 -20 26 3 45 0 45 -6 0 -6 -23 -34 -51 -63 -33 -34 -50 -46 -47 -34 4 24 -27 33 -35 10 -9 -22 2 -45 19 -38 8 3 14 -1 14 -8 1 -9 6 -7 15 5 18 24 30 15 16 -12 -27 -50 -9 -53 33 -6 45 49 73 58 36 11 -11 -14 -17 -32 -14 -41 3 -9 1 -22 -5 -30 -7 -8 -15 -33 -19 -57 -9 -54 -36 -68 -30 -15 5 41 -8 49 -18 11 -3 -14 -12 -25 -20 -25 -10 0 -8 -6 7 -21 11 -11 18 -27 15 -35 -3 -8 -1 -14 4 -14 6 0 10 5 10 10 0 6 6 10 13 10 11 0 21 15 66 108 9 19 24 38 34 44 10 5 22 19 26 31 8 20 8 20 13 -6 3 -14 2 -24 -2 -22 -10 6 -60 -59 -60 -77 0 -8 -7 -23 -15 -34 -8 -10 -15 -27 -15 -36 0 -10 -4 -18 -10 -18 -5 0 -10 -12 -10 -26 0 -22 2 -25 15 -14 8 7 15 18 15 25 0 7 7 18 15 25 9 7 13 20 10 29 -6 20 14 52 22 33 2 -6 9 -9 14 -6 6 3 19 -2 30 -12 10 -9 19 -12 19 -6 0 6 7 9 16 5 12 -4 14 -14 10 -42 -3 -20 -9 -57 -12 -83 -4 -26 -10 -45 -15 -42 -21 12 -28 -8 -14 -36 17 -34 19 -50 5 -50 -5 0 -10 5 -10 10 0 6 -9 20 -19 32 -16 16 -17 24 -8 39 6 10 8 22 3 26 -10 11 -38 -28 -32 -44 3 -7 1 -13 -4 -13 -6 0 -10 -33 -10 -72 -1 -86 -14 -75 -25 20 -6 56 -9 62 -30 62 -17 0 -24 -8 -31 -32 l-8 -33 -3 33 c-3 17 -9 32 -15 32 -6 0 -8 12 -4 30 8 42 -20 40 -39 -2 -10 -24 -14 -28 -15 -13 0 11 -9 31 -19 44 -10 14 -17 32 -14 40 2 9 -3 6 -13 -6 -9 -13 -20 -23 -25 -23 -5 0 -9 10 -10 23 -1 20 -2 19 -11 -5 -15 -41 -28 -34 -22 12 4 26 2 40 -5 40 -6 0 -11 -9 -11 -19 0 -31 -21 -36 -40 -11 -18 23 -17 24 14 54 30 28 66 42 66 24 0 -4 6 -8 14 -8 7 0 21 20 30 44 14 35 21 43 36 39 16 -4 21 1 26 25 3 16 11 29 17 28 7 0 12 4 12 9 0 13 -56 7 -74 -8 -12 -10 -13 -5 -8 30 7 42 7 42 -35 61 -42 18 -43 18 -50 0 -4 -10 -5 -24 -2 -31 2 -7 -4 -21 -15 -31 -27 -25 -18 -36 29 -36 30 0 38 -3 34 -14 -3 -8 -1 -23 5 -34 7 -14 7 -24 -2 -36 -10 -14 -16 -15 -39 -4 -16 7 -28 21 -28 31 0 10 -8 17 -20 17 -25 0 -27 -35 -2 -49 9 -6 15 -11 12 -11 -3 -1 -16 -3 -30 -6 -14 -2 -31 -6 -37 -9 -17 -6 -17 -52 -1 -57 8 -3 4 -9 -10 -17 -26 -14 -30 -56 -6 -69 13 -7 14 -13 6 -28 -11 -18 -11 -18 -12 1 0 26 -39 53 -50 35 -12 -19 -87 -16 -109 4 -15 14 -26 15 -65 6 -26 -6 -52 -8 -57 -5 -14 9 -49 -5 -49 -19 0 -15 67 -76 84 -76 6 -1 30 -4 53 -9 35 -7 40 -6 36 8 -4 10 2 8 16 -7 21 -22 29 -23 119 -19 l97 5 60 -39 c33 -21 65 -43 71 -48 16 -13 75 -28 118 -30 29 -1 51 -12 85 -39 25 -21 60 -44 76 -51 17 -7 37 -17 45 -21 10 -4 18 -30 23 -71 10 -84 36 -101 82 -55 25 25 24 38 0 99 -7 17 -6 17 11 7 11 -7 19 -23 19 -38 0 -44 23 -36 90 32 35 36 70 66 77 66 7 0 0 -9 -16 -19 -16 -11 -38 -34 -49 -51 -11 -17 -34 -41 -52 -53 -114 -78 -125 -89 -125 -128 0 -43 -24 -74 -49 -63 -9 4 -26 8 -38 9 -12 1 -28 7 -36 14 -12 9 -16 9 -19 -1 -4 -10 -9 -10 -23 2 -10 8 -26 14 -35 12 -9 -1 -23 4 -30 13 -9 11 -16 12 -25 5 -8 -6 -22 -7 -36 -2 -54 20 -221 -16 -324 -69 -103 -54 -175 -99 -175 -110 0 -5 -17 -17 -38 -28 -45 -23 -105 -87 -96 -102 3 -6 -5 -23 -19 -37 -13 -15 -27 -39 -31 -54 -4 -16 -18 -34 -35 -43 -42 -21 -73 -64 -66 -92 4 -16 -1 -27 -19 -38 -28 -18 -79 -92 -72 -103 3 -5 -27 -41 -65 -81 -72 -76 -90 -111 -70 -135 12 -14 11 -38 -5 -133 -4 -29 -2 -48 6 -58 11 -13 9 -19 -8 -36 -20 -18 -22 -30 -22 -130 0 -90 4 -119 21 -160 25 -58 50 -64 69 -18 7 17 24 37 36 46 26 16 38 53 50 148 14 117 0 140 -78 130 -27 -3 -48 -2 -48 3 0 16 79 31 111 22 17 -5 37 -6 45 -3 16 6 18 50 4 87 -8 23 -15 26 -60 26 -27 0 -50 4 -50 8 0 14 73 32 98 25 29 -7 82 40 82 73 0 39 -25 49 -73 29 -83 -34 -87 -35 -87 -22 0 13 35 34 113 66 26 11 47 25 47 31 0 6 -21 21 -47 32 -44 19 -46 22 -25 29 16 6 33 4 52 -6 44 -23 57 -19 85 26 30 46 26 74 -11 91 -13 6 -24 17 -24 24 0 10 15 12 64 7 l64 -6 21 40 c19 38 19 42 3 56 -9 8 -27 20 -39 26 -13 6 -23 16 -23 21 0 16 56 11 89 -7 38 -22 48 -13 29 29 -21 45 -30 86 -20 92 4 2 21 -29 37 -70 21 -51 35 -74 47 -74 15 0 17 10 15 67 -2 67 -2 67 -41 89 -21 12 -33 24 -28 28 13 8 41 -2 64 -22 28 -24 48 -8 48 40 l0 42 38 -37 c30 -29 41 -34 50 -25 19 19 14 53 -13 78 -29 27 -33 45 -7 29 27 -17 72 4 65 30 -3 12 -1 21 6 21 6 0 11 -9 11 -20 0 -11 6 -20 14 -20 27 0 66 20 66 33 0 39 78 67 118 41 24 -16 26 -16 43 7 l19 24 0 -25 c0 -31 26 -70 46 -70 8 0 14 9 14 20 0 11 -3 20 -8 20 -4 0 -13 10 -21 22 l-13 21 27 -21 c15 -12 36 -39 47 -59 34 -65 49 -84 59 -77 6 3 3 -8 -6 -26 -18 -35 -14 -60 10 -60 12 0 13 -3 3 -19 -15 -24 3 -71 27 -71 11 0 12 -5 5 -24 -5 -15 -4 -48 2 -88 11 -62 12 -64 38 -60 15 2 44 -5 66 -17 21 -12 53 -21 70 -21 65 0 103 -65 134 -228 13 -72 49 -151 73 -164 16 -8 22 -8 25 1 2 7 15 24 28 38 13 14 24 32 24 39 0 23 15 16 33 -14 24 -41 39 -85 27 -77 -6 3 -10 12 -10 19 0 7 -9 21 -20 31 -19 18 -21 17 -40 -5 -24 -28 -25 -36 -5 -44 8 -3 15 -10 15 -15 0 -6 24 -50 53 -98 78 -127 111 -174 165 -230 25 -27 59 -27 54 -1 -1 9 7 32 19 50 12 18 18 24 14 13 -22 -57 -18 -69 32 -107 26 -20 71 -54 98 -75 91 -71 129 -93 160 -93 27 0 33 6 57 59 30 65 89 114 111 92 8 -8 5 -11 -11 -11 -13 0 -29 -11 -39 -27 -10 -16 -23 -32 -30 -36 -27 -17 -14 -56 25 -80 61 -39 346 -142 362 -132 6 3 10 24 10 46 0 45 3 46 46 20 55 -33 197 -71 267 -71 82 0 116 15 124 52 5 27 8 29 47 24 119 -15 182 -15 297 -2 138 17 179 28 179 49 0 10 21 16 76 21 42 4 95 13 118 20 65 21 168 38 176 29 4 -4 14 -29 24 -55 12 -34 34 -62 76 -98 33 -28 69 -68 82 -88 12 -20 27 -42 34 -49 6 -6 16 -26 23 -45 7 -18 17 -40 22 -48 5 -8 22 -40 38 -70 16 -30 48 -78 71 -105 22 -28 50 -68 61 -90 19 -38 36 -66 101 -162 48 -72 151 -139 248 -160 14 -3 30 -9 35 -14 6 -4 30 -11 53 -15 l42 -7 0 36 c0 37 13 56 26 36 9 -16 25 11 18 33 -3 9 3 22 13 30 10 7 28 47 40 89 19 64 20 81 10 108 -10 28 -15 31 -57 31 l-45 1 35 17 c28 14 35 23 35 46 0 27 -6 32 -82 65 -46 19 -83 39 -83 44 0 5 -9 20 -19 34 -11 13 -17 31 -14 39 3 8 1 14 -4 14 -11 0 -38 59 -48 104 l-6 29 -65 -6 c-35 -2 -67 -1 -70 4 -3 5 6 9 20 9 23 0 26 4 26 34 0 28 -6 38 -36 55 -19 12 -39 21 -45 21 -5 0 -9 -24 -9 -54 0 -49 -2 -55 -22 -58 -32 -4 -32 -55 0 -76 21 -14 23 -14 28 6 6 19 7 19 22 3 10 -10 24 -29 32 -43 62 -102 67 -106 104 -77 30 24 35 10 6 -16 -25 -23 -25 -37 -1 -59 18 -17 21 -17 48 1 l28 18 -27 -33 c-42 -51 -38 -92 12 -135 36 -31 39 -35 20 -40 -26 -7 -45 -54 -29 -73 6 -8 22 -14 34 -14 18 0 21 -4 17 -25 -4 -24 -6 -25 -22 -10 -27 24 -59 19 -71 -12 -5 -14 -9 -33 -8 -42 3 -37 0 -42 -21 -29 -25 16 -22 36 21 127 34 73 33 94 -10 135 l-29 28 -61 -18 c-51 -14 -62 -21 -68 -43 -9 -40 -14 -44 -28 -24 -10 14 -10 21 -1 35 15 21 9 73 -10 89 -10 8 -20 6 -41 -11 -33 -26 -45 -8 -14 21 27 25 26 35 -4 84 -27 44 -32 67 -12 59 7 -2 28 11 47 31 l34 35 -26 27 -27 26 -35 -24 c-24 -16 -36 -32 -36 -47 0 -23 0 -23 -24 5 -22 24 -27 26 -45 16 -22 -14 -23 -13 -48 36 -7 13 -13 30 -13 37 0 8 -13 41 -30 74 -34 68 -36 74 -15 66 20 -7 45 3 45 19 0 15 -27 28 -41 19 -5 -3 -9 -1 -9 4 0 5 11 14 25 20 15 7 25 20 25 33 0 16 5 20 28 17 23 -3 27 1 30 25 2 16 9 27 18 27 11 0 12 -4 5 -18 -5 -10 -7 -23 -3 -29 9 -15 71 -11 81 5 5 8 12 0 21 -24 14 -36 43 -64 66 -64 13 0 25 46 17 67 -6 16 -94 65 -108 59 -6 -2 -18 2 -28 8 -14 11 -12 13 16 13 18 0 41 -6 52 -13 28 -20 49 -17 71 7 10 12 36 30 57 40 20 11 37 24 37 29 0 5 -14 19 -31 31 -25 18 -35 20 -49 11 -14 -9 -19 -8 -24 3 -3 8 -12 15 -19 15 -8 0 -20 7 -27 15 -7 8 -21 15 -32 15 -11 0 -16 4 -12 11 3 6 17 8 31 4 l24 -6 -20 22 c-23 25 -21 36 5 21 19 -11 285 54 364 89 49 22 100 65 100 85 0 18 -50 63 -77 70 -13 4 -23 12 -23 18 0 17 -55 56 -80 56 -11 0 -20 4 -20 9 0 5 -10 13 -21 16 -17 6 -19 9 -8 16 11 6 9 13 -9 32 -30 32 -28 37 12 37 34 0 35 1 29 36 -6 39 -15 38 87 13 25 -6 58 -13 74 -16 16 -3 37 -14 47 -24 11 -11 25 -16 35 -12 23 8 14 39 -43 161 l-48 102 -55 -5 c-34 -4 -72 -1 -100 8 -44 13 -44 13 44 9 79 -4 91 -2 103 14 14 18 16 18 42 -13 29 -35 51 -43 51 -18 0 9 7 27 16 40 15 24 15 27 -9 58 -27 36 -27 87 0 87 10 0 14 7 10 19 -3 13 1 21 14 24 12 3 19 14 20 29 l0 23 9 -22 c10 -25 25 -30 36 -12 3 6 0 15 -7 20 -11 7 -9 9 7 9 17 0 22 -6 20 -25 -1 -21 -7 -25 -43 -31 -46 -7 -52 -14 -28 -34 8 -7 12 -16 10 -21 -7 -11 31 -49 49 -49 19 0 48 29 41 41 -4 5 -23 10 -43 11 l-37 1 35 4 c38 5 61 19 59 37 -4 32 3 44 29 49 15 3 34 1 42 -4 11 -6 8 -8 -12 -9 -15 0 -30 -4 -33 -10 -4 -6 8 -10 29 -10 20 0 36 5 36 10 0 6 5 10 11 10 6 0 9 -7 5 -15 -3 -8 1 -21 9 -29 13 -12 12 -16 -1 -27 -19 -16 -14 -49 9 -63 14 -8 20 -8 28 4 7 11 8 8 3 -12 -5 -22 -2 -29 12 -34 11 -3 38 -14 62 -25 23 -10 49 -19 57 -19 16 0 19 28 9 68 -7 26 -75 65 -98 56 -9 -3 -16 -1 -16 4 0 6 -9 14 -21 17 -11 4 -19 9 -16 11 2 2 30 -5 62 -16 l59 -20 23 22 23 22 -6 -32 c-6 -31 -5 -32 28 -32 19 0 39 5 46 12 9 9 15 9 24 0 8 -8 9 -12 1 -12 -24 0 -39 -28 -35 -64 3 -27 12 -40 38 -56 l33 -21 71 41 c65 38 90 43 90 20 0 -5 -14 -13 -32 -18 -37 -9 -45 -24 -23 -45 23 -24 -1 -31 -26 -8 -17 16 -25 18 -45 9 -13 -6 -24 -17 -24 -25 0 -9 -7 -6 -20 7 -11 11 -34 23 -50 26 -16 4 -31 13 -34 21 -8 20 -28 5 -21 -16 3 -10 -1 -23 -9 -30 -11 -9 -14 -8 -12 5 0 9 -7 21 -17 28 -15 9 -21 7 -31 -7 -18 -23 -29 -22 -16 3 9 17 8 21 -7 26 -10 3 -29 10 -43 16 -14 6 -42 14 -63 18 l-37 7 5 -41 4 -41 -37 0 -37 0 -3 -61 c-3 -60 -2 -62 25 -67 38 -7 43 -2 43 46 0 47 12 73 29 63 8 -5 6 -12 -5 -23 -12 -12 -15 -28 -11 -60 2 -24 7 -46 9 -49 3 -2 43 -9 89 -15 60 -8 92 -8 112 0 l28 11 -37 44 c-29 35 -48 47 -86 56 -26 7 -51 16 -54 21 -6 10 52 1 78 -12 9 -5 25 -9 35 -9 10 -1 36 -23 58 -51 31 -39 44 -49 64 -47 17 2 27 11 32 28 6 26 8 24 24 -25 7 -24 67 -18 131 15 32 16 65 30 73 30 8 0 11 7 8 20 -4 16 0 20 17 20 13 0 25 3 29 6 8 9 -21 64 -33 64 -6 0 -10 6 -10 13 0 6 -24 36 -52 66 -50 51 -119 91 -183 107 -51 12 -172 52 -202 67 -15 7 -55 19 -88 26 -88 19 -195 58 -239 89 -38 26 -45 27 -155 26 l-116 -1 -54 84 c-30 46 -69 97 -87 112 -18 16 -30 32 -27 35 4 3 -1 6 -10 6 -10 0 -17 4 -17 9 0 17 20 23 35 11 12 -10 15 -9 15 8 0 25 -16 37 -50 37 -32 0 -41 34 -11 42 21 5 21 5 1 30 -11 14 -20 31 -20 37 -1 35 -171 226 -201 226 -5 0 -6 6 -3 14 13 35 -195 236 -245 236 -6 0 -11 14 -11 30 0 17 -4 30 -8 30 -5 0 -29 13 -54 30 -51 34 -102 48 -112 31 -4 -6 -12 -11 -18 -11 -7 0 -6 6 2 15 9 11 9 15 1 15 -7 0 -10 4 -6 10 6 10 -80 53 -144 70 -46 12 -72 8 -92 -16 -11 -13 -6 -14 42 -9 50 5 52 4 35 -10 -11 -8 -26 -15 -34 -15 -20 0 10 -34 58 -66 19 -13 46 -32 60 -44 20 -16 21 -19 5 -13 -20 8 -31 15 -121 81 -35 26 -51 32 -71 27 -38 -9 -107 -59 -195 -140 -42 -38 -101 -88 -130 -111 -62 -47 -70 -72 -34 -115 14 -17 33 -55 42 -84 8 -30 25 -63 37 -73 30 -24 70 -82 62 -90 -3 -4 -28 18 -55 48 -34 38 -54 72 -65 110 -9 30 -26 66 -38 78 -47 51 -124 71 -184 48 -32 -12 -291 -31 -280 -20 2 2 59 10 127 18 69 8 138 19 153 25 16 6 41 11 56 11 15 0 33 6 40 13 11 10 14 10 18 0 8 -23 30 -14 79 31 27 24 58 46 69 50 11 3 49 33 85 67 60 57 173 139 190 139 4 0 10 9 13 21 4 14 -1 23 -16 29 -18 7 -19 9 -4 9 10 1 32 11 50 23 18 13 34 24 37 26 12 8 -64 41 -240 101 -101 35 -223 58 -227 44 -2 -6 -10 -19 -18 -29 -12 -17 -13 -16 -12 15 2 32 -1 35 -33 43 -74 16 -340 50 -354 45 -8 -3 -20 -16 -26 -27 -11 -20 -9 -21 17 -19 15 2 35 -1 43 -6 12 -8 9 -11 -15 -15 -16 -4 -36 -2 -44 4 -7 6 -63 13 -125 17 -107 6 -82 12 36 9 47 -1 58 2 67 19 7 12 7 22 2 26 -11 6 -297 0 -462 -11 l-106 -6 -7 26 c-6 25 -24 32 -65 27 -7 -2 -20 0 -28 3 -13 5 -13 9 -2 22 12 15 10 15 -25 0 -21 -9 -49 -16 -62 -16 -28 0 -30 -7 -8 -38 22 -32 7 -48 -18 -17 -14 18 -29 25 -53 25 -19 0 -37 5 -40 10 -4 6 -11 8 -16 5 -5 -4 -9 1 -9 9 0 20 26 21 34 1 7 -19 56 -20 56 -1 0 8 -8 28 -17 44 -13 22 -15 35 -7 52 9 20 10 19 10 -14 0 -45 14 -60 59 -60 39 0 56 11 36 23 -14 9 40 19 159 30 84 7 81 19 -7 28 -33 4 -65 13 -76 23 -17 17 -16 18 19 23 25 4 46 0 72 -13 47 -25 60 -25 37 0 -9 10 -38 27 -64 36 -46 17 -74 34 -56 34 25 -1 127 -41 153 -60 31 -23 62 -24 70 -2 2 8 -23 24 -65 44 -71 32 -73 52 -1 24 57 -23 60 -12 4 15 -26 12 -61 37 -79 55 -17 19 -41 34 -54 34 -68 0 -106 -57 -61 -92 23 -18 23 -18 -11 -4 -24 9 -44 11 -65 5 -46 -13 -83 -11 -100 6 -19 20 -63 19 -74 -1 -8 -14 -13 -11 -34 15 -16 21 -30 30 -40 26 -43 -17 -21 -66 30 -67 18 -1 32 -4 32 -8 0 -3 18 -16 40 -29 26 -14 37 -27 33 -37 -4 -11 -10 -9 -31 11 -16 17 -36 25 -58 25 -37 0 -45 -18 -19 -40 8 -7 15 -18 15 -24 0 -6 -7 -3 -15 8 -15 20 -35 14 -35 -11 0 -8 11 -28 24 -44 l25 -29 15 22 c8 12 13 25 10 30 -3 4 0 8 5 8 6 0 11 -6 11 -13 0 -23 -31 -57 -51 -57 -17 0 -18 -3 -9 -20 15 -28 49 -45 63 -31 17 17 31 13 17 -4 -17 -20 -32 -19 -63 5 -14 11 -32 20 -41 20 -23 0 -20 15 7 34 l22 15 -23 20 c-12 11 -28 22 -35 25 -9 5 -9 7 1 12 16 7 16 94 0 130 -11 23 -10 28 9 43 11 10 23 26 25 37 4 15 8 12 23 -18 21 -43 23 -43 70 -24 40 17 43 29 15 73 -20 33 -29 34 -91 9 -9 -4 -23 2 -35 15 -19 22 -19 22 1 12 26 -13 85 3 85 22 0 9 -4 24 -10 35 -5 11 -14 29 -20 40 -17 33 -13 127 6 134 8 3 12 10 9 16 -3 5 -2 10 4 10 5 0 12 -8 15 -18 7 -22 45 -59 64 -64 8 -2 19 13 26 34 12 33 11 37 -6 41 -10 3 -27 26 -39 51 -11 25 -24 46 -28 46 -4 0 -16 -18 -26 -40z m352 -416 c-3 -3 -12 -4 -19 -1 -8 3 -5 6 6 6 11 1 17 -2 13 -5z m-297 -174 c0 -5 -8 -10 -17 -10 -15 0 -16 2 -3 10 19 12 20 12 20 0z m127 -26 c-3 -3 -12 -4 -19 -1 -8 3 -5 6 6 6 11 1 17 -2 13 -5z m-67 -124 c0 -5 -2 -10 -4 -10 -3 0 -8 5 -11 10 -3 6 -1 10 4 10 6 0 11 -4 11 -10z m360 -29 c-8 -5 -43 -16 -78 -25 -35 -9 -73 -23 -85 -31 -23 -16 -82 -21 -72 -6 3 5 20 12 38 16 17 4 43 14 57 23 30 19 73 30 120 31 24 0 30 -2 20 -8z m228 2 c-10 -2 -26 -2 -35 0 -10 3 -2 5 17 5 19 0 27 -2 18 -5z m-582 -30 c-4 -4 -19 -8 -34 -10 -23 -2 -24 -1 -7 7 24 11 51 13 41 3z m44 -53 c-8 -5 -34 -10 -57 -10 -24 0 -43 -4 -43 -10 0 -5 -13 -10 -30 -10 -16 0 -30 5 -30 10 0 6 5 10 11 10 5 0 8 3 6 8 -3 4 32 8 77 9 55 2 76 0 66 -7z m155 -16 c13 -9 29 -13 35 -9 15 9 12 -1 -6 -19 -8 -9 -30 -16 -47 -15 -18 0 -26 3 -20 6 8 3 11 14 7 29 -7 28 -2 30 31 8z m1032 0 c-3 -3 -12 -4 -19 -1 -8 3 -5 6 6 6 11 1 17 -2 13 -5z m-467 -24 c0 -5 -10 -15 -22 -21 -23 -12 -23 -12 -4 10 21 23 26 26 26 11z m693 -26 c27 -9 46 -18 44 -21 -3 -2 -27 3 -54 12 -27 9 -72 20 -99 25 l-49 9 55 -4 c31 -3 77 -12 103 -21z m-1313 6 c0 -5 -9 -10 -21 -10 -11 0 -17 5 -14 10 3 6 13 10 21 10 8 0 14 -4 14 -10z m-1031 -45 c-23 -38 -29 -43 -29 -20 0 14 34 55 45 55 2 0 -5 -16 -16 -35z m1066 5 c-3 -5 -15 -10 -25 -10 -10 0 -22 5 -25 10 -4 6 7 10 25 10 18 0 29 -4 25 -10z m505 0 c-8 -5 -19 -10 -25 -10 -5 0 -3 5 5 10 8 5 20 10 25 10 6 0 3 -5 -5 -10z m910 -11 c18 -11 -34 -1 -65 13 -13 5 -9 6 15 2 19 -4 42 -10 50 -15z m-2408 -1 c4 -12 -41 -43 -49 -34 -3 2 0 14 7 25 12 23 36 28 42 9z m101 -29 c-36 -62 -98 -76 -91 -21 3 28 28 44 28 18 0 -9 2 -16 5 -16 11 0 50 26 58 38 17 26 17 10 0 -19z m1292 -29 c-16 -17 -23 -30 -17 -30 7 0 11 -3 10 -7 -5 -27 42 -138 77 -178 14 -17 25 -39 25 -50 0 -11 -3 -15 -8 -10 -22 25 -92 146 -92 159 0 8 -6 21 -13 28 -8 7 -20 24 -27 38 -12 22 -10 26 25 57 46 40 60 35 20 -7z m355 31 c0 -5 -7 -11 -15 -15 -9 -3 -15 0 -15 9 0 8 7 15 15 15 8 0 15 -4 15 -9z m-80 -72 c0 -11 -3 -11 -34 1 -37 14 -33 32 4 19 17 -6 30 -15 30 -20z m-1498 -21 c-7 -7 -12 -8 -12 -2 0 6 3 14 7 17 3 4 9 5 12 2 2 -3 -1 -11 -7 -17z m1442 -33 c3 -9 0 -25 -7 -35 -9 -16 -19 -19 -47 -14 -45 8 -47 11 -27 31 15 16 18 16 35 0 25 -23 30 -21 24 8 -5 27 12 35 22 10z m-1654 -35 c-16 -31 -23 -18 -8 15 7 15 14 23 16 17 2 -6 -2 -21 -8 -32z m44 6 c-6 -16 -24 -23 -24 -8 0 10 22 33 27 28 2 -2 1 -11 -3 -20z m1926 -97 c0 -16 -27 -21 -49 -9 -26 13 -27 27 -3 33 20 4 52 -10 52 -24z m80 1 c0 -17 -15 -11 -28 11 -12 19 -11 19 8 9 11 -6 20 -15 20 -20z m-1910 -47 c-11 -17 -11 -17 -6 0 3 10 7 26 7 35 1 15 2 15 6 0 2 -10 -1 -25 -7 -35z m2786 -5 c101 -75 284 -282 265 -301 -8 -8 -11 -8 -11 1 0 18 -42 72 -55 72 -13 0 -25 -73 -25 -146 0 -44 -28 -84 -59 -84 -22 0 -141 -76 -141 -90 0 -5 4 -10 10 -10 15 0 89 -105 116 -165 24 -52 66 -92 92 -87 7 2 15 -4 19 -13 5 -13 7 -14 14 -3 6 10 13 10 26 2 32 -20 25 -31 -16 -29 l-40 2 15 -35 c8 -20 16 -37 17 -39 8 -8 106 -4 130 6 17 6 27 7 27 1 0 -6 -7 -10 -15 -10 -8 0 -30 -9 -50 -20 -19 -11 -38 -20 -43 -20 -4 0 -7 -8 -7 -17 0 -11 11 -19 33 -24 21 -4 49 -23 75 -51 23 -25 50 -48 60 -51 9 -4 17 -11 17 -18 0 -6 -7 -9 -15 -5 -13 4 -13 2 -5 -14 5 -10 15 -22 20 -25 6 -3 10 -11 10 -16 0 -9 -79 26 -90 40 -13 16 -118 91 -127 91 -6 0 -15 -12 -21 -28 -5 -15 -30 -52 -56 -81 -25 -30 -46 -60 -46 -67 0 -6 -30 -39 -67 -73 l-67 -61 25 -27 c54 -61 61 -75 13 -30 -46 43 -52 46 -64 32 -8 -9 -32 -26 -54 -37 -32 -17 -38 -17 -27 -4 7 9 19 16 26 16 6 0 23 12 37 28 14 15 53 51 87 81 62 54 128 142 144 191 4 14 10 42 13 62 4 30 0 40 -18 53 -29 20 -190 125 -293 190 -42 27 -72 51 -66 53 6 2 24 -6 40 -17 16 -12 34 -21 40 -21 7 0 25 -10 41 -22 39 -29 50 -16 14 17 -22 20 -25 28 -15 35 11 6 11 11 -1 29 -17 24 -87 81 -99 81 -5 0 -9 9 -9 20 0 24 13 26 31 4 7 -8 26 -22 43 -31 17 -9 44 -26 59 -39 35 -29 52 -31 35 -4 -17 27 -2 38 21 14 10 -10 28 -27 40 -36 20 -17 21 -17 21 1 0 38 -129 187 -139 160 -1 -6 5 -16 15 -24 11 -7 15 -17 11 -22 -5 -4 -17 3 -28 17 -11 14 -29 35 -40 47 l-20 22 -42 -19 c-23 -11 -62 -19 -87 -19 l-45 1 53 9 c64 11 122 34 122 49 0 6 4 9 8 6 4 -2 14 -1 21 4 8 4 27 3 43 -2 24 -9 34 -6 66 15 20 15 58 35 84 47 26 11 50 25 53 30 13 22 24 174 14 187 -8 9 -8 13 0 13 6 0 11 5 11 11 0 12 -147 159 -196 196 -16 12 -24 22 -18 23 6 0 24 -10 40 -22z m-3330 -27 c-9 -13 -46 -15 -46 -1 0 14 34 30 44 20 4 -4 5 -13 2 -19z m515 -66 l-10 -40 4 45 c5 60 7 68 11 50 3 -9 0 -33 -5 -55z m1459 34 c0 -5 -4 -9 -10 -9 -5 0 -10 7 -10 16 0 8 5 12 10 9 6 -3 10 -10 10 -16z m-2250 -9 c0 -5 -7 -10 -15 -10 -8 0 -15 5 -15 10 0 6 7 10 15 10 8 0 15 -4 15 -10z m50 6 c0 -3 -4 -8 -10 -11 -5 -3 -10 -1 -10 4 0 6 5 11 10 11 6 0 10 -2 10 -4z m144 -11 c3 -8 1 -15 -4 -15 -6 0 -10 7 -10 15 0 8 2 15 4 15 2 0 6 -7 10 -15z m3094 -2 c23 -4 32 -11 32 -25 0 -11 -9 -22 -20 -25 -11 -3 -20 -14 -20 -24 0 -12 -7 -19 -18 -19 -22 0 -92 50 -71 51 10 0 10 2 2 6 -17 6 -16 23 1 23 8 0 17 7 20 16 4 11 12 14 24 9 9 -4 32 -9 50 -12z m-3198 -13 c0 -5 -7 -10 -16 -10 -8 0 -12 5 -9 10 3 6 10 10 16 10 5 0 9 -4 9 -10z m296 -38 c-11 -10 -15 4 -8 28 l7 25 3 -23 c2 -13 1 -26 -2 -30z m-49 1 c-3 -10 -5 -4 -5 12 0 17 2 24 5 18 2 -7 2 -21 0 -30z m-37 8 c0 -11 -26 -22 -34 -14 -12 12 -5 23 14 23 11 0 20 -4 20 -9z m2050 -26 c-25 -27 -50 -33 -50 -12 0 7 12 18 28 24 43 17 47 15 22 -12z m-1670 -42 c-1 -24 -2 -26 -11 -10 -5 9 -7 22 -4 27 10 17 15 11 15 -17z m1640 -13 c0 -5 -5 -10 -11 -10 -5 0 -7 5 -4 10 3 6 8 10 11 10 2 0 4 -4 4 -10z m-1085 -20 c-3 -5 -12 -10 -18 -10 -7 0 -6 4 3 10 19 12 23 12 15 0z m-519 -37 c-10 -10 -19 5 -10 18 6 11 8 11 12 0 2 -7 1 -15 -2 -18z m-39 -15 c-3 -8 -6 -5 -6 6 -1 11 2 17 5 13 3 -3 4 -12 1 -19z m2503 -6 c0 -11 -9 -12 -42 -7 -66 11 -72 27 -10 24 37 -2 52 -7 52 -17z m-1830 -57 c0 -8 -2 -15 -4 -15 -2 0 -6 7 -10 15 -3 8 -1 15 4 15 6 0 10 -7 10 -15z m2549 -16 c43 -42 62 -79 42 -79 -5 0 -14 14 -20 30 -5 17 -14 30 -19 30 -5 0 -17 11 -26 25 -22 34 -14 32 23 -6z m-1618 -2 c-10 -9 -11 -8 -5 6 3 10 9 15 12 12 3 -3 0 -11 -7 -18z m-897 -43 c3 -8 2 -12 -4 -9 -6 3 -10 10 -10 16 0 14 7 11 14 -7z m1666 -36 c0 -18 -23 -2 -32 22 -9 23 -8 23 12 5 11 -10 20 -22 20 -27z m-1624 -42 c14 -30 33 -58 43 -61 10 -3 28 -29 41 -58 13 -28 30 -60 38 -69 8 -9 12 -22 10 -29 -2 -7 -21 22 -42 65 -21 43 -46 80 -55 83 -15 4 -77 123 -65 123 3 0 16 -25 30 -54z m2047 37 c8 -7 -11 -33 -25 -33 -5 0 -6 5 -3 10 3 6 1 10 -4 10 -6 0 -11 5 -11 10 0 11 33 14 43 3z m491 -39 c3 -8 2 -12 -4 -9 -6 3 -10 10 -10 16 0 14 7 11 14 -7z m-627 -18 c4 -7 15 -16 23 -19 8 -4 2 -5 -15 -4 -19 1 -31 8 -33 20 -4 20 14 23 25 3z m-1107 -33 c-11 -17 -11 -17 -6 0 3 10 6 24 7 30 0 9 2 9 5 0 3 -7 0 -20 -6 -30z m923 -3 c25 -27 39 -35 62 -33 24 2 26 1 8 -5 -12 -4 -31 -19 -43 -35 -25 -32 -40 -27 -40 14 0 18 -5 29 -14 29 -13 0 -46 41 -46 58 0 21 45 4 73 -28z m644 14 c-3 -3 -12 -4 -19 -1 -8 3 -5 6 6 6 11 1 17 -2 13 -5z m-1613 -53 c-18 -11 -35 -24 -39 -30 -3 -6 -21 -18 -38 -27 -38 -20 -37 -18 28 35 28 22 57 40 65 41 8 0 1 -9 -16 -19z m1574 -8 c-3 -14 -38 -29 -38 -16 0 5 31 32 38 33 2 0 2 -7 0 -17z m-465 0 c-7 -2 -21 -2 -30 0 -10 3 -4 5 12 5 17 0 24 -2 18 -5z m-33 -49 c0 -9 -7 -14 -17 -12 -24 4 -27 23 -3 25 12 1 20 -4 20 -13z m-1198 -46 l-5 -32 -18 23 c-10 12 -21 21 -26 21 -4 -1 -9 3 -11 9 -2 7 11 11 30 11 33 0 34 -1 30 -32z m-137 7 c-27 -7 -61 -13 -75 -13 -14 0 0 6 30 13 72 17 110 16 45 0z m1381 -22 l28 -37 -33 19 c-19 11 -35 28 -37 38 -4 27 11 20 42 -20z m-1562 -13 c-6 -6 -44 -13 -85 -15 l-74 -4 68 9 c38 5 71 11 75 14 3 3 10 6 16 6 7 0 7 -3 0 -10z m-174 -35 c0 -14 -2 -25 -4 -25 -2 0 -6 11 -8 25 -3 14 -1 25 3 25 5 0 9 -11 9 -25z m1557 -7 c-3 -7 -5 -2 -5 12 0 14 2 19 5 13 2 -7 2 -19 0 -25z m-997 -50 c0 -10 11 -41 25 -68 13 -26 27 -68 31 -92 9 -63 24 -107 39 -115 7 -5 16 -21 20 -38 5 -24 1 -20 -25 22 -17 29 -35 78 -41 111 -8 45 -18 67 -39 85 -15 14 -30 40 -34 60 -4 19 -13 40 -21 47 -22 18 -8 31 20 18 14 -6 25 -20 25 -30z m-567 -8 c3 -11 1 -20 -4 -20 -5 0 -9 9 -9 20 0 11 2 20 4 20 2 0 6 -9 9 -20z m-573 -28 c0 -21 -2 -24 -10 -12 -8 13 -13 13 -39 -3 -16 -9 -42 -17 -58 -16 l-28 1 30 7 c36 9 85 39 85 53 0 5 5 6 10 3 6 -3 10 -18 10 -33z m3149 -26 c27 -43 27 -56 0 -27 -19 20 -28 22 -67 17 -45 -6 -45 -6 -26 15 10 11 26 18 36 16 10 -3 21 -1 24 4 8 14 11 12 33 -25z m-2564 -41 c-6 -55 -45 -147 -45 -109 0 11 7 30 16 42 9 13 15 40 14 65 -3 61 -1 69 11 61 7 -4 9 -25 4 -59z m1525 35 c-6 -12 -14 -19 -17 -17 -2 3 1 15 7 27 6 12 14 19 17 17 2 -3 -1 -15 -7 -27z m770 -20 c0 -5 -4 -10 -10 -10 -5 0 -10 5 -10 10 0 6 5 10 10 10 6 0 10 -4 10 -10z m-821 -59 c-19 -22 -36 -38 -38 -36 -4 5 62 83 68 79 2 -2 -12 -21 -30 -43z m-2019 -9 c0 -15 -2 -15 -10 -2 -13 20 -13 33 0 25 6 -3 10 -14 10 -23z m1855 -52 c38 0 44 3 39 18 -5 14 -4 15 5 2 6 -8 11 -23 11 -32 0 -29 22 -32 43 -7 l19 24 -16 -27 c-9 -15 -13 -35 -9 -45 4 -10 -8 -1 -26 20 l-33 37 -177 2 -176 2 130 6 130 5 5 35 4 35 4 -37 c3 -38 4 -38 47 -38z m-2095 36 c0 -3 -4 -8 -10 -11 -5 -3 -10 -1 -10 4 0 6 5 11 10 11 6 0 10 -2 10 -4z m3410 -29 c0 -5 -4 -5 -10 -2 -5 3 -10 14 -10 23 0 15 2 15 10 2 5 -8 10 -19 10 -23z m-3150 -32 c5 -5 11 -28 15 -50 5 -36 4 -35 -14 15 -11 30 -20 62 -20 70 1 8 4 6 6 -5 3 -11 9 -24 13 -30z m1509 11 c-2 -2 -42 -6 -89 -9 -52 -3 -69 -2 -45 3 42 8 141 13 134 6z m-1055 -126 c-15 -28 -29 -48 -31 -46 -2 2 8 24 22 49 14 25 26 56 26 69 l2 23 4 -22 c2 -13 -8 -45 -23 -73z m821 80 c-11 -5 -33 -8 -50 -8 -29 1 -29 1 5 8 49 10 69 10 45 0z m679 -83 c4 -19 3 -26 -4 -22 -5 3 -10 18 -10 32 0 32 5 28 14 -10z m1382 19 c25 -19 8 -36 -28 -29 -28 5 -39 23 -15 23 8 0 7 4 -3 10 -12 8 -11 10 6 10 11 0 29 -6 40 -14z m-2145 -93 c-7 -32 -16 -71 -21 -88 -9 -29 -9 -29 -4 5 9 66 28 149 33 145 2 -3 -1 -31 -8 -62z m-543 24 c11 -9 10 -12 -7 -19 -21 -7 -61 15 -61 34 0 10 50 -1 68 -15z m1363 -110 c10 -3 21 -17 24 -33 3 -16 15 -46 25 -66 11 -20 20 -56 20 -79 0 -28 6 -46 18 -55 16 -12 15 -13 -5 -14 -12 0 -24 -6 -26 -12 -3 -7 -3 14 0 47 4 50 2 68 -16 100 -11 22 -21 48 -21 58 0 10 -11 28 -23 40 -24 22 -48 77 -46 106 0 9 7 -7 16 -36 10 -33 22 -53 34 -56z m2319 88 c-7 -8 -26 -15 -43 -15 -37 0 -30 10 15 20 18 4 35 8 37 9 2 1 -2 -6 -9 -14z m-3941 -61 c-12 -33 -28 -66 -36 -74 -12 -13 -13 -13 -7 5 3 11 14 38 24 60 10 22 20 49 24 59 4 10 9 17 12 14 2 -3 -5 -32 -17 -64z m2856 6 c10 -25 20 -62 22 -83 5 -36 4 -38 -15 -28 -21 11 -41 81 -40 139 2 40 11 32 33 -28z m-4471 16 c-3 -9 -10 -16 -15 -16 -5 0 -4 9 3 20 14 22 21 20 12 -4z m1359 -211 c6 -37 5 -36 -14 15 -30 82 -33 99 -11 60 10 -19 22 -53 25 -75z m204 73 c-3 -8 -6 -5 -6 6 -1 11 2 17 5 13 3 -3 4 -12 1 -19z m-11 -54 c-4 -14 -9 -24 -12 -21 -3 2 -2 17 2 31 3 15 9 25 11 22 3 -3 2 -17 -1 -32z m2049 -23 c-27 -10 -72 -28 -98 -40 -27 -11 -61 -21 -75 -20 -20 0 -16 3 18 13 25 7 61 19 80 28 73 32 86 37 105 37 11 0 -2 -8 -30 -18z m-2077 -53 c-11 -32 -68 -120 -68 -104 0 4 8 20 19 34 10 15 26 44 34 65 20 46 30 49 15 5z m2352 -30 c0 -16 8 -42 19 -56 10 -15 21 -38 25 -52 6 -22 5 -22 -10 5 -9 16 -23 35 -30 43 -15 14 -16 18 -18 69 0 17 2 29 7 26 4 -2 7 -18 7 -35z m540 12 c0 -5 -12 -17 -27 -27 -16 -10 -30 -20 -33 -24 -3 -3 -21 -14 -40 -24 -31 -16 -33 -16 -21 -2 7 10 19 17 25 17 7 0 27 16 46 35 34 35 50 43 50 25z m-2104 -56 c-7 -25 -66 -115 -66 -98 0 5 14 29 30 53 17 24 30 50 30 58 0 7 3 13 6 13 3 0 3 -11 0 -26z m-2459 -46 c-3 -8 -6 -5 -6 6 -1 11 2 17 5 13 3 -3 4 -12 1 -19z m3402 -37 c-12 -29 -24 -49 -27 -46 -3 3 5 28 18 55 30 65 38 57 9 -9z m-1795 10 c-6 -6 -24 19 -24 34 1 6 7 1 15 -9 8 -11 12 -22 9 -25z m2766 4 c0 -11 -118 -63 -155 -68 l-40 -6 35 10 c38 12 56 20 110 49 36 19 50 24 50 15z m-1009 -111 c-5 -16 -10 -21 -10 -12 -1 18 10 51 15 45 2 -1 -1 -16 -5 -33z m-1619 -34 c13 -11 20 -19 16 -20 -13 0 -78 62 -78 74 1 6 9 1 20 -12 10 -13 29 -32 42 -42z m2606 -2 c9 -15 13 -30 10 -34 -9 -8 -58 48 -51 59 8 13 23 3 41 -25z m-4411 -80 c-2 -18 -4 -6 -4 27 0 33 2 48 4 33 2 -15 2 -42 0 -60z m3391 25 c-9 -10 -18 -29 -21 -43 l-4 -25 -2 25 c-1 26 27 76 37 66 3 -3 -2 -14 -10 -23z m-968 -1 c0 -5 -7 -17 -16 -28 -8 -10 -14 -14 -11 -9 2 6 7 18 10 28 7 17 17 23 17 9z m-494 -39 c-7 -7 -26 7 -26 19 0 6 6 6 15 -2 9 -7 13 -15 11 -17z m1874 -7 c-52 -19 -96 -29 -87 -19 9 8 82 30 107 31 8 0 -1 -5 -20 -12z m-1804 -14 c-16 -2 -32 0 -37 5 -5 5 7 7 29 4 34 -5 35 -6 8 -9z m1354 -52 c-7 -17 -10 -33 -6 -37 3 -3 -3 -13 -15 -21 -15 -10 -24 -11 -32 -3 -8 8 -7 11 5 11 10 0 23 18 34 44 10 25 20 43 23 41 2 -3 -2 -18 -9 -35z m327 24 c-3 -3 -12 -4 -19 -1 -8 3 -5 6 6 6 11 1 17 -2 13 -5z m-244 -61 c-13 -2 -35 -2 -50 0 -16 2 -5 4 22 4 28 0 40 -2 28 -4z m-958 -42 c44 -11 100 -21 125 -21 26 0 51 -5 57 -11 6 -6 58 -9 141 -7 72 2 127 -1 123 -5 -4 -4 -71 -6 -147 -3 -201 7 -243 12 -304 31 -30 9 -67 19 -83 22 -15 3 -30 10 -34 16 -7 11 3 9 122 -22z m720 -1 c-27 -12 -43 -12 -25 0 8 5 22 9 30 9 10 0 8 -3 -5 -9z m-46 -14 c-2 -2 -24 -6 -49 -10 -31 -4 -40 -3 -30 4 13 9 89 15 79 6z m-117 -35 c-2 -12 2 -29 9 -37 6 -8 9 -18 5 -21 -9 -9 -26 16 -26 39 0 9 -5 20 -10 23 -13 8 -2 27 13 22 7 -2 11 -14 9 -26z m48 -102 c0 -5 -4 -9 -10 -9 -5 0 -10 7 -10 16 0 8 5 12 10 9 6 -3 10 -10 10 -16z m-550 -9 c0 -5 -4 -10 -10 -10 -5 0 -10 5 -10 10 0 6 5 10 10 10 6 0 10 -4 10 -10z m83 -17 c18 -11 4 -23 -28 -23 -28 0 -35 4 -35 20 0 17 4 19 28 14 15 -4 30 -9 35 -11z m2204 -779 c3 -21 2 -36 -2 -32 -5 4 -15 2 -23 -5 -13 -10 -15 -8 -9 13 4 14 7 38 7 55 0 41 19 19 27 -31z"
       id="path24"
       style="fill:#24a134;fill-opacity:1" />
    <path
       d="M5343 2413 c4 -6 3 -13 -3 -15 -6 -2 -1 -9 10 -16 16 -10 20 -10 20 2 0 7 -8 20 -17 27 -9 8 -14 9 -10 2z"
       id="path25"
       style="fill:#24a134;fill-opacity:1" />
    <path
       d="M3495 4550 c-16 -16 -27 -32 -24 -34 24 -21 71 -35 92 -27 31 12 37 22 30 49 -3 14 -13 22 -27 22 -12 0 -27 5 -32 10 -7 7 -20 0 -39 -20z m75 -20 c0 -5 -7 -7 -15 -4 -8 4 -15 8 -15 10 0 2 7 4 15 4 8 0 15 -4 15 -10z"
       id="path26"
       style="fill:#24a134;fill-opacity:1" />
    <path
       d="M3302 4520 c2 -28 8 -36 26 -38 29 -4 28 13 -4 46 l-25 27 3 -35z"
       id="path27"
       style="fill:#24a134;fill-opacity:1" />
    <path
       d="M3794 4526 c-28 -22 -7 -50 40 -54 41 -4 42 -2 21 38 -17 33 -32 37 -61 16z"
       id="path28"
       style="fill:#24a134;fill-opacity:1" />
    <path
       d="M3390 4490 c-12 -8 -11 -10 7 -10 12 0 25 5 28 10 8 13 -15 13 -35 0z"
       id="path29"
       style="fill:#24a134;fill-opacity:1" />
    <path
       d="M3437 4474 c-16 -21 -15 -23 9 -39 25 -16 27 -16 50 6 27 25 20 44 -19 51 -15 3 -28 -3 -40 -18z"
       id="path30"
       style="fill:#24a134;fill-opacity:1" />
    <path
       d="M3737 4493 c-4 -3 -7 -10 -7 -14 0 -11 29 -19 35 -10 6 11 -20 33 -28 24z"
       id="path31"
       style="fill:#24a134;fill-opacity:1" />
    <path
       d="M3228 4478 c-23 -8 -28 -16 -28 -45 0 -34 1 -34 33 -28 57 12 65 15 70 35 5 19 -20 51 -39 49 -5 0 -21 -5 -36 -11z"
       id="path32"
       style="fill:#24a134;fill-opacity:1" />
    <path
       d="M3575 4465 c-20 -16 -25 -25 -15 -26 26 -3 45 2 58 15 11 10 11 15 0 24 -11 8 -21 5 -43 -13z"
       id="path33"
       style="fill:#24a134;fill-opacity:1" />
    <path
       d="M3672 4469 c2 -6 8 -10 13 -10 5 0 11 4 13 10 2 6 -4 11 -13 11 -9 0 -15 -5 -13 -11z"
       id="path34"
       style="fill:#24a134;fill-opacity:1" />
    <path
       d="M3332 4451 c-6 -4 -15 -22 -18 -41 -7 -31 -6 -33 17 -27 13 4 34 7 47 7 17 0 22 6 22 24 0 32 -17 42 -25 16 -4 -11 -10 -18 -15 -15 -5 3 -7 12 -4 19 7 17 -8 27 -24 17z"
       id="path35"
       style="fill:#24a134;fill-opacity:1" />
    <path
       d="M3067 4443 c-14 -13 -6 -70 11 -86 23 -21 71 -22 79 -2 4 12 10 9 28 -15 28 -38 69 -70 89 -70 16 0 46 37 46 57 0 8 -12 18 -27 24 -16 6 -36 17 -45 26 -10 9 -28 13 -43 11 -14 -3 -25 -1 -25 3 0 5 -8 9 -18 9 -10 0 -29 11 -42 25 -23 25 -41 31 -53 18z m233 -123 c0 -5 -2 -10 -4 -10 -3 0 -8 5 -11 10 -3 6 -1 10 4 10 6 0 11 -4 11 -10z"
       id="path36"
       style="fill:#24a134;fill-opacity:1" />
    <path
       d="M3691 4419 c-22 -37 -27 -69 -11 -69 6 0 15 10 20 23 6 12 15 30 22 39 10 13 10 20 1 29 -9 9 -17 4 -32 -22z"
       id="path37"
       style="fill:#24a134;fill-opacity:1" />
    <path
       d="M3925 4440 c3 -5 10 -10 16 -10 5 0 9 5 9 10 0 6 -7 10 -16 10 -8 0 -12 -4 -9 -10z"
       id="path38"
       style="fill:#24a134;fill-opacity:1" />
    <path
       d="M3506 4424 c-9 -8 -16 -20 -16 -25 0 -11 49 22 50 34 0 12 -18 8 -34 -9z"
       id="path39"
       style="fill:#24a134;fill-opacity:1" />
    <path
       d="M3773 4430 c-13 -5 -23 -15 -23 -22 0 -7 -9 -24 -20 -38 -11 -14 -20 -35 -20 -46 0 -25 55 -88 69 -80 8 5 18 50 22 96 1 8 9 23 17 33 14 16 13 17 -12 17 -35 0 -26 16 14 24 18 3 29 10 25 16 -7 12 -42 12 -72 0z"
       id="path40"
       style="fill:#24a134;fill-opacity:1" />
    <path
       d="M3426 4421 c-4 -7 -5 -15 -2 -18 9 -9 19 4 14 18 -4 11 -6 11 -12 0z"
       id="path41"
       style="fill:#24a134;fill-opacity:1" />
    <path
       d="M3552 4399 c-26 -8 -33 -14 -30 -32 2 -12 15 -28 32 -36 25 -12 33 -11 62 3 36 17 40 26 24 57 -12 21 -36 23 -88 8z"
       id="path42"
       style="fill:#24a134;fill-opacity:1" />
    <path
       d="M3261 4387 c2 -1 12 -9 22 -16 14 -12 17 -11 17 3 0 10 -8 16 -22 16 -12 0 -19 -1 -17 -3z"
       id="path43"
       style="fill:#24a134;fill-opacity:1" />
    <path
       d="M3347 4369 c-9 -6 -15 -14 -12 -19 8 -13 45 0 45 16 0 16 -8 17 -33 3z"
       id="path44"
       style="fill:#24a134;fill-opacity:1" />
    <path
       d="M3411 4362 c-8 -15 -5 -24 18 -46 24 -23 32 -25 54 -17 25 10 26 11 13 43 -17 40 -68 52 -85 20z"
       id="path45"
       style="fill:#24a134;fill-opacity:1" />
    <path
       d="M3106 4317 c-17 -12 -17 -16 -3 -42 13 -26 20 -29 63 -30 27 0 55 -3 63 -5 32 -11 16 18 -29 53 -52 40 -67 44 -94 24z"
       id="path46"
       style="fill:#24a134;fill-opacity:1" />
    <path
       d="M3361 4306 c-13 -15 -5 -45 13 -47 14 -2 50 2 54 6 1 1 -3 14 -9 29 -13 28 -40 34 -58 12z"
       id="path47"
       style="fill:#24a134;fill-opacity:1" />
    <path
       d="M3602 4300 c-32 -20 -35 -40 -6 -40 8 0 12 -5 8 -11 -7 -12 54 -79 73 -79 24 0 13 36 -24 79 l-37 43 33 -7 c31 -7 32 -6 22 14 -14 26 -27 26 -69 1z"
       id="path48"
       style="fill:#24a134;fill-opacity:1" />
    <path
       d="M3495 4279 c-31 -9 -55 -33 -55 -55 0 -38 127 -134 178 -134 20 0 21 3 12 21 -7 11 -26 27 -43 34 -35 15 -87 60 -87 75 0 16 12 12 36 -11 14 -13 30 -19 39 -15 14 5 11 13 -15 51 -17 25 -32 45 -33 44 -1 0 -15 -5 -32 -10z"
       id="path49"
       style="fill:#24a134;fill-opacity:1" />
    <path
       d="M3310 4255 c-19 -23 -8 -50 24 -53 44 -5 54 13 22 43 -32 29 -30 29 -46 10z"
       id="path50"
       style="fill:#24a134;fill-opacity:1" />
    <path
       d="M3394 4236 c-4 -10 -2 -22 4 -28 8 -8 13 -7 18 6 4 10 2 22 -4 28 -8 8 -13 7 -18 -6z"
       id="path51"
       style="fill:#24a134;fill-opacity:1" />
    <path
       d="M3146 4232 c-3 -5 0 -23 6 -40 15 -39 48 -46 65 -14 15 28 7 52 -17 52 -10 0 -25 3 -33 6 -8 3 -18 1 -21 -4z"
       id="path52"
       style="fill:#24a134;fill-opacity:1" />
    <path
       d="M3255 4220 c-8 -26 -1 -35 20 -26 18 7 17 37 -2 43 -6 2 -14 -5 -18 -17z"
       id="path53"
       style="fill:#24a134;fill-opacity:1" />
    <path
       d="M3272 4176 c-35 -10 -40 -31 -10 -50 22 -14 51 12 46 41 -3 17 -7 18 -36 9z"
       id="path54"
       style="fill:#24a134;fill-opacity:1" />
    <path
       d="M3635 4150 c3 -5 11 -10 16 -10 6 0 7 5 4 10 -3 6 -11 10 -16 10 -6 0 -7 -4 -4 -10z"
       id="path55"
       style="fill:#24a134;fill-opacity:1" />
    <path
       d="M3188 4118 c16 -16 25 -19 33 -11 16 16 2 33 -29 33 l-26 0 22 -22z"
       id="path56"
       style="fill:#24a134;fill-opacity:1" />
    <path
       d="M3391 3926 c-10 -12 -3 -15 41 -18 62 -5 70 -2 44 18 -25 18 -70 18 -85 0z"
       id="path57"
       style="fill:#24a134;fill-opacity:1" />
    <path
       d="M1387 3914 c-1 -1 -42 -9 -91 -17 -49 -9 -92 -20 -95 -24 -3 -5 -28 -14 -56 -21 -72 -19 -78 -26 -53 -68 15 -26 27 -34 49 -34 17 0 36 -9 46 -20 20 -22 49 -26 56 -7 3 7 6 6 6 -5 1 -9 -3 -20 -9 -23 -17 -11 -11 -61 11 -89 11 -14 16 -26 10 -26 -16 0 -51 56 -51 84 0 49 -66 89 -108 67 -12 -6 -33 -11 -49 -10 l-28 1 33 10 c35 12 40 31 16 63 -18 24 -42 13 -62 -29 -8 -15 -33 -45 -57 -67 -46 -43 -102 -143 -107 -194 -3 -29 -2 -30 45 -33 32 -2 47 -7 44 -15 -4 -12 79 -77 99 -77 6 0 17 -6 23 -14 6 -8 22 -16 34 -19 12 -2 30 -8 40 -12 12 -5 17 -2 17 11 0 14 3 15 12 6 7 -7 24 -12 40 -12 21 0 26 4 21 16 -3 9 0 19 6 23 16 10 -17 31 -84 56 -27 10 -56 23 -63 28 -7 5 -39 7 -72 4 -56 -5 -60 -4 -60 15 0 19 4 20 55 14 35 -4 55 -2 55 4 0 15 36 12 49 -4 6 -7 32 -21 58 -31 36 -14 50 -15 64 -6 26 15 54 14 69 -4 7 -9 21 -13 30 -10 14 4 16 1 13 -19 -5 -27 27 -52 53 -42 33 13 6 95 -28 84 -12 -4 -43 41 -34 50 3 2 25 1 50 -2 34 -5 44 -11 39 -22 -8 -22 41 -89 77 -104 30 -12 32 -12 71 28 21 23 39 48 39 55 0 20 -26 40 -69 53 l-36 12 31 1 c46 2 65 30 71 105 5 60 4 66 -21 91 -14 14 -26 27 -26 29 0 2 20 1 45 -2 43 -4 45 -4 45 22 0 15 8 41 17 59 14 26 18 29 21 13 2 -10 -1 -23 -7 -29 -31 -31 16 -87 73 -87 20 0 39 -9 55 -25 27 -29 34 -30 51 -10 14 17 30 20 30 5 0 -5 -6 -10 -14 -10 -18 0 -56 -64 -56 -95 0 -14 13 -34 32 -50 47 -40 93 -31 152 28 24 25 54 51 66 57 14 7 20 19 18 33 -2 18 -8 21 -36 19 -31 -3 -33 -2 -27 18 6 19 4 21 -14 15 -12 -4 -21 -2 -21 4 0 14 -37 14 -45 1 -3 -5 -13 -10 -21 -10 -11 0 -12 4 -4 19 16 31 12 39 -22 57 -18 10 -49 29 -68 44 -19 15 -48 32 -65 38 -39 14 -368 46 -378 36z m30 -103 c-7 -8 -24 -11 -49 -8 -21 3 -38 1 -38 -4 0 -5 -8 -9 -18 -9 -9 0 -22 -10 -27 -22 -14 -30 -33 -34 -37 -6 -2 14 -12 24 -28 28 -18 4 -26 13 -28 33 -4 34 10 35 28 2 22 -41 102 -27 153 27 18 18 19 18 37 -4 14 -18 16 -26 7 -37z m118 -41 c3 -5 -1 -10 -9 -10 -9 0 -16 5 -16 10 0 6 4 10 9 10 6 0 13 -4 16 -10z m-17 -82 c-9 -7 -18 -19 -20 -27 -3 -9 -9 -5 -21 13 l-17 26 37 0 c31 0 34 -2 21 -12z m-158 -72 c0 -17 -14 -29 -23 -20 -8 8 3 34 14 34 5 0 9 -6 9 -14z"
       id="path58"
       style="fill:#24a134;fill-opacity:1" />
    <path
       d="M1636 3715 c-10 -27 -7 -70 6 -83 16 -16 130 -16 146 0 15 15 16 55 0 64 -10 7 -45 15 -119 31 -19 3 -28 0 -33 -12z"
       id="path59"
       style="fill:#24a134;fill-opacity:1" />
    <path
       d="M2100 3674 c0 -8 5 -12 10 -9 6 4 8 11 5 16 -9 14 -15 11 -15 -7z"
       id="path60"
       style="fill:#24a134;fill-opacity:1" />
    <path
       d="M2101 3637 c2 -1 12 -9 22 -16 14 -12 17 -11 17 3 0 10 -8 16 -22 16 -12 0 -19 -1 -17 -3z"
       id="path61"
       style="fill:#24a134;fill-opacity:1" />
    <path
       d="M2070 3605 c-10 -12 -9 -16 5 -21 19 -8 40 9 31 25 -10 15 -21 14 -36 -4z"
       id="path62"
       style="fill:#24a134;fill-opacity:1" />
    <path
       d="M2191 3604 c0 -11 3 -14 6 -6 3 7 2 16 -1 19 -3 4 -6 -2 -5 -13z"
       id="path63"
       style="fill:#24a134;fill-opacity:1" />
    <path
       d="M2220 3605 c-11 -13 -10 -14 4 -9 9 3 16 10 16 15 0 13 -6 11 -20 -6z"
       id="path64"
       style="fill:#24a134;fill-opacity:1" />
    <path
       d="M1628 3593 c-32 -8 -28 -34 13 -83 42 -50 75 -66 138 -69 50 -2 71 7 71 32 0 29 -33 82 -62 100 -23 15 -129 28 -160 20z"
       id="path65"
       style="fill:#24a134;fill-opacity:1" />
    <path
       d="M2110 3576 c0 -9 7 -16 16 -16 9 0 14 5 12 12 -6 18 -28 21 -28 4z"
       id="path66"
       style="fill:#24a134;fill-opacity:1" />
    <path
       d="M1876 3491 c-9 -14 21 -33 46 -29 12 2 24 11 26 21 3 13 -4 17 -32 17 -19 0 -37 -4 -40 -9z"
       id="path67"
       style="fill:#24a134;fill-opacity:1" />
    <path
       d="M1606 3406 c-54 -72 -31 -100 90 -110 102 -8 121 1 109 53 -8 36 -38 61 -75 61 -14 1 -36 7 -50 15 -36 21 -45 19 -74 -19z"
       id="path68"
       style="fill:#24a134;fill-opacity:1" />
    <path
       d="M1853 3422 c-30 -16 -42 -40 -27 -55 4 -3 20 1 36 9 16 8 38 12 49 9 13 -4 21 -1 26 10 6 17 -14 38 -29 29 -4 -3 -8 0 -8 5 0 14 -8 13 -47 -7z"
       id="path69"
       style="fill:#24a134;fill-opacity:1" />
    <path
       d="M1297 3353 c-3 -5 7 -14 22 -19 20 -8 30 -7 39 3 10 10 10 13 0 13 -7 0 -23 3 -34 6 -12 3 -24 2 -27 -3z"
       id="path70"
       style="fill:#24a134;fill-opacity:1" />
    <path
       d="M2110 3335 c-6 -8 -10 -20 -8 -26 2 -6 12 0 21 15 18 27 8 37 -13 11z"
       id="path71"
       style="fill:#24a134;fill-opacity:1" />
    <path
       d="M2330 3311 c0 -11 -4 -23 -10 -26 -5 -3 -10 -11 -10 -17 0 -7 5 -7 14 1 8 6 19 10 26 9 7 -2 15 3 18 11 3 10 0 12 -12 8 -14 -6 -16 -3 -11 13 4 11 2 20 -4 20 -6 0 -11 -9 -11 -19z"
       id="path72"
       style="fill:#24a134;fill-opacity:1" />
    <path
       d="M1190 3300 c0 -5 11 -10 25 -10 28 0 122 -46 174 -84 35 -26 71 -34 71 -17 0 5 16 9 35 8 21 -1 42 6 52 16 20 20 15 26 -20 29 -14 1 -24 5 -22 9 18 28 -129 65 -158 40 -11 -8 -23 -7 -50 4 -41 17 -107 20 -107 5z m220 -76 c0 -14 -3 -14 -15 -4 -8 7 -15 14 -15 16 0 2 7 4 15 4 8 0 15 -7 15 -16z"
       id="path73"
       style="fill:#24a134;fill-opacity:1" />
    <path
       d="M1670 3271 c0 -8 41 -23 47 -17 2 1 -8 8 -22 14 -14 6 -25 8 -25 3z"
       id="path74"
       style="fill:#24a134;fill-opacity:1" />
    <path
       d="M2201 3234 c0 -11 3 -14 6 -6 3 7 2 16 -1 19 -3 4 -6 -2 -5 -13z"
       id="path75"
       style="fill:#24a134;fill-opacity:1" />
    <path
       d="M2058 2559 c-10 -5 -18 -19 -18 -30 0 -18 6 -20 43 -17 37 3 42 6 42 28 0 19 -6 26 -25 27 -14 2 -33 -2 -42 -8z"
       id="path76"
       style="fill:#24a134;fill-opacity:1" />
    <path
       d="M2147 2533 c-3 -5 2 -29 10 -55 14 -49 28 -57 67 -42 22 8 20 16 -11 63 -24 37 -55 53 -66 34z"
       id="path77"
       style="fill:#24a134;fill-opacity:1" />
    <path
       d="M1940 2480 c0 -6 -8 -10 -17 -8 -10 1 -19 -1 -20 -5 -6 -17 -2 -27 12 -27 9 0 18 -7 21 -15 7 -18 16 -18 67 -4 33 9 38 14 35 37 -3 25 -7 27 -50 30 -31 2 -48 -1 -48 -8z"
       id="path78"
       style="fill:#24a134;fill-opacity:1" />
    <path
       d="M2050 2478 c0 -16 39 -120 49 -131 4 -4 18 4 31 18 22 24 23 26 8 72 -14 45 -18 48 -52 51 -25 2 -36 -1 -36 -10z"
       id="path79"
       style="fill:#24a134;fill-opacity:1" />
    <path
       d="M2260 2467 c0 -13 11 -34 25 -47 21 -19 25 -21 30 -7 8 20 -21 77 -40 77 -9 0 -15 -9 -15 -23z"
       id="path80"
       style="fill:#24a134;fill-opacity:1" />
    <path
       d="M1995 2400 c-11 -18 15 -50 40 -50 34 0 36 45 3 54 -31 8 -36 8 -43 -4z"
       id="path81"
       style="fill:#24a134;fill-opacity:1" />
    <path
       d="M1901 2373 c0 -32 51 -78 74 -69 16 6 21 46 7 46 -5 0 -14 11 -20 25 -8 17 -20 25 -37 25 -21 0 -25 -5 -24 -27z"
       id="path82"
       style="fill:#24a134;fill-opacity:1" />
    <path
       d="M2180 2381 c-11 -21 5 -83 38 -146 9 -18 15 -59 16 -104 1 -70 14 -99 31 -72 3 6 15 11 26 11 23 0 23 2 3 70 -16 53 -12 155 6 190 8 16 -5 49 -24 62 -6 4 -28 8 -48 8 -27 0 -40 -5 -48 -19z"
       id="path83"
       style="fill:#24a134;fill-opacity:1" />
    <path
       d="M1818 2359 c-24 -13 -23 -40 3 -67 24 -27 39 -21 39 17 0 39 -20 63 -42 50z"
       id="path84"
       style="fill:#24a134;fill-opacity:1" />
    <path
       d="M2137 2334 c-7 -8 24 -74 35 -74 13 0 9 17 -10 50 -10 16 -21 27 -25 24z"
       id="path85"
       style="fill:#24a134;fill-opacity:1" />
    <path
       d="M2018 2314 c-24 -13 -28 -21 -28 -60 0 -42 5 -50 68 -117 37 -40 78 -87 90 -104 13 -18 27 -33 32 -33 11 0 -30 98 -57 137 -35 47 -26 100 17 115 18 6 0 36 -35 58 -38 24 -51 24 -87 4z m92 -57 c0 -5 -4 -5 -10 -2 -5 3 -10 14 -10 23 0 15 2 15 10 2 5 -8 10 -19 10 -23z"
       id="path86"
       style="fill:#24a134;fill-opacity:1" />
    <path
       d="M1883 2294 c-8 -21 7 -45 41 -64 24 -13 28 -13 36 0 14 21 13 24 -16 54 -31 30 -52 33 -61 10z"
       id="path87"
       style="fill:#24a134;fill-opacity:1" />
    <path
       d="M1765 2288 c-3 -11 -1 -60 4 -89 2 -14 33 -19 52 -9 25 14 24 42 -1 65 -11 10 -20 24 -20 32 0 17 -29 17 -35 1z"
       id="path88"
       style="fill:#24a134;fill-opacity:1" />
    <path
       d="M6410 2270 c-24 -24 -25 -34 -4 -54 19 -19 58 -21 72 -3 23 27 17 48 -16 62 -30 13 -34 13 -52 -5z"
       id="path89"
       style="fill:#24a134;fill-opacity:1" />
    <path
       d="M1854 2223 c-5 -20 -2 -30 17 -44 47 -36 72 -16 38 30 -31 41 -47 46 -55 14z"
       id="path90"
       style="fill:#24a134;fill-opacity:1" />
    <path
       d="M6245 2240 c-11 -18 7 -60 35 -80 30 -22 65 -26 75 -10 3 6 22 10 41 10 38 0 42 15 10 34 -14 9 -21 7 -35 -10 -15 -19 -19 -20 -36 -8 -10 8 -27 14 -38 14 -10 0 -16 3 -14 8 7 11 -11 52 -22 52 -5 0 -12 -4 -16 -10z"
       id="path91"
       style="fill:#24a134;fill-opacity:1" />
    <path
       d="M1940 2181 c0 -12 29 -23 41 -15 18 10 9 24 -16 24 -14 0 -25 -4 -25 -9z"
       id="path92"
       style="fill:#24a134;fill-opacity:1" />
    <path
       d="M6473 2183 c-28 -11 -13 -33 22 -33 40 0 41 2 19 24 -16 17 -21 18 -41 9z"
       id="path93"
       style="fill:#24a134;fill-opacity:1" />
    <path
       d="M6710 2155 c0 -24 6 -37 19 -45 25 -13 32 -2 24 43 -4 27 -11 37 -24 37 -15 0 -19 -7 -19 -35z"
       id="path94"
       style="fill:#24a134;fill-opacity:1" />
    <path
       d="M1827 2174 c-4 -4 -7 -18 -7 -31 0 -28 23 -27 28 1 4 20 -11 40 -21 30z"
       id="path95"
       style="fill:#24a134;fill-opacity:1" />
    <path
       d="M1640 2150 c-6 -12 -10 -31 -8 -43 6 -45 91 -13 100 38 3 17 -3 20 -39 23 -34 3 -44 -1 -53 -18z"
       id="path96"
       style="fill:#24a134;fill-opacity:1" />
    <path
       d="M1773 2115 c7 -52 22 -85 41 -85 24 0 25 12 3 71 -26 73 -52 81 -44 14z"
       id="path97"
       style="fill:#24a134;fill-opacity:1" />
    <path
       d="M1860 2110 c0 -27 4 -40 14 -40 16 0 26 32 19 60 -10 37 -33 23 -33 -20z"
       id="path98"
       style="fill:#24a134;fill-opacity:1" />
    <path
       d="M1926 2134 c-9 -8 -16 -29 -16 -45 0 -23 9 -36 48 -64 26 -19 67 -57 91 -85 23 -27 50 -50 59 -50 14 0 14 1 1 13 -31 24 -89 104 -89 121 0 10 5 26 11 37 8 16 13 18 25 8 30 -25 14 13 -20 47 -38 38 -83 45 -110 18z"
       id="path99"
       style="fill:#24a134;fill-opacity:1" />
    <path
       d="M6392 2128 c2 -6 15 -20 29 -30 31 -23 59 -14 59 18 0 22 -4 24 -46 24 -31 0 -44 -4 -42 -12z"
       id="path100"
       style="fill:#24a134;fill-opacity:1" />
    <path
       d="M6259 2081 c-11 -38 -11 -40 30 -89 37 -43 46 -49 79 -48 l37 0 -3 74 c-3 64 -6 74 -28 88 -18 13 -27 14 -38 5 -12 -10 -10 -22 10 -79 28 -80 28 -78 10 -62 -15 12 -40 72 -50 123 -9 39 -33 33 -47 -12z"
       id="path101"
       style="fill:#24a134;fill-opacity:1" />
    <path
       d="M1737 2093 c-4 -3 -7 -19 -7 -35 0 -40 24 -31 28 10 3 30 -6 41 -21 25z"
       id="path102"
       style="fill:#24a134;fill-opacity:1" />
    <path
       d="M1693 2005 c2 -64 4 -70 25 -73 12 -2 22 1 22 6 0 5 14 12 31 16 24 5 30 10 27 28 -4 28 -37 36 -54 13 -12 -16 -14 -16 -23 6 -29 76 -30 76 -28 4z"
       id="path103"
       style="fill:#24a134;fill-opacity:1" />
    <path
       d="M1540 2040 c0 -26 39 -48 51 -29 13 21 11 36 -7 43 -29 11 -44 6 -44 -14z"
       id="path104"
       style="fill:#24a134;fill-opacity:1" />
    <path
       d="M1615 2023 c14 -80 29 -97 41 -47 9 35 -7 78 -29 82 -16 3 -17 -1 -12 -35z"
       id="path105"
       style="fill:#24a134;fill-opacity:1" />
    <path
       d="M1857 2044 c-16 -16 -6 -35 16 -32 12 2 22 10 22 18 0 16 -26 25 -38 14z"
       id="path106"
       style="fill:#24a134;fill-opacity:1" />
    <path
       d="M1876 1976 c-15 -14 -26 -37 -26 -52 0 -49 107 -194 143 -194 30 0 29 22 -3 55 -27 27 -31 38 -25 63 4 21 0 40 -15 67 -12 21 -19 39 -16 42 2 3 9 -5 16 -16 13 -26 30 -27 30 -3 -1 25 -23 50 -53 57 -20 5 -32 1 -51 -19z"
       id="path107"
       style="fill:#24a134;fill-opacity:1" />
    <path
       d="M1550 1965 c0 -8 -9 -15 -19 -15 -26 0 -83 -87 -75 -114 19 -62 49 -50 60 22 8 55 22 98 23 70 1 -21 3 -21 36 -6 28 13 33 43 9 52 -25 10 -34 7 -34 -9z"
       id="path108"
       style="fill:#24a134;fill-opacity:1" />
    <path
       d="M1637 1928 c-16 -8 -18 -19 -13 -75 6 -67 24 -103 53 -103 12 0 14 12 10 58 -6 68 -17 121 -26 126 -3 3 -15 0 -24 -6z"
       id="path109"
       style="fill:#24a134;fill-opacity:1" />
    <path
       d="M1785 1920 c-18 -20 -17 -20 12 -20 35 0 44 7 36 26 -7 20 -27 17 -48 -6z"
       id="path110"
       style="fill:#24a134;fill-opacity:1" />
    <path
       d="M1561 1874 c-33 -42 -27 -80 16 -102 17 -9 22 -9 27 4 8 20 -4 124 -15 124 -4 0 -17 -12 -28 -26z"
       id="path111"
       style="fill:#24a134;fill-opacity:1" />
    <path
       d="M1723 1893 c-7 -2 -13 -11 -13 -20 0 -20 34 -12 38 10 3 17 -3 20 -25 10z"
       id="path112"
       style="fill:#24a134;fill-opacity:1" />
    <path
       d="M1782 1861 c-15 -9 -31 -114 -22 -148 4 -20 8 -21 26 -10 99 59 105 67 82 110 -31 55 -55 68 -86 48z m56 -67 c-4 -3 -12 5 -18 18 -12 22 -12 22 6 6 10 -10 15 -20 12 -24z"
       id="path113"
       style="fill:#24a134;fill-opacity:1" />
    <path
       d="M1712 1789 c2 -18 9 -34 16 -37 10 -3 13 5 10 29 -2 18 -9 34 -16 37 -10 3 -13 -5 -10 -29z"
       id="path114"
       style="fill:#24a134;fill-opacity:1" />
    <path
       d="M1505 1770 c-10 -15 6 -80 19 -80 22 0 39 45 27 69 -12 22 -36 28 -46 11z"
       id="path115"
       style="fill:#24a134;fill-opacity:1" />
    <path
       d="M1587 1721 c-34 -58 -13 -104 53 -113 22 -3 25 2 33 45 8 43 7 51 -14 73 -30 32 -51 30 -72 -5z m70 -46 c-7 -14 -15 -25 -19 -25 -11 0 -10 8 2 31 16 28 30 23 17 -6z"
       id="path116"
       style="fill:#24a134;fill-opacity:1" />
    <path
       d="M1882 1738 c-17 -17 -15 -23 14 -69 23 -38 26 -39 39 -23 15 21 9 44 -11 44 -8 0 -14 9 -14 20 0 11 5 20 11 20 5 0 7 5 4 10 -8 14 -28 13 -43 -2z"
       id="path117"
       style="fill:#24a134;fill-opacity:1" />
    <path
       d="M1425 1701 c-21 -31 -25 -46 -20 -70 6 -28 9 -30 38 -24 18 3 36 9 40 13 9 8 -13 120 -24 120 -3 0 -19 -18 -34 -39z"
       id="path118"
       style="fill:#24a134;fill-opacity:1" />
    <path
       d="M1710 1667 c0 -34 7 -50 19 -42 10 6 0 75 -10 75 -5 0 -9 -15 -9 -33z"
       id="path119"
       style="fill:#24a134;fill-opacity:1" />
    <path
       d="M1790 1668 c-28 -27 -31 -37 -26 -67 12 -77 36 -140 56 -146 33 -10 43 4 24 32 -14 22 -14 31 -4 62 8 26 9 44 1 64 -6 15 -6 27 -2 27 5 0 11 -6 14 -12 2 -7 8 -10 12 -6 11 10 -15 78 -30 78 -7 0 -28 -14 -45 -32z"
       id="path120"
       style="fill:#24a134;fill-opacity:1" />
    <path
       d="M1511 1626 c-14 -17 -7 -71 11 -82 25 -16 37 50 15 80 -12 16 -14 16 -26 2z"
       id="path121"
       style="fill:#24a134;fill-opacity:1" />
    <path
       d="M1574 1563 c-20 -32 -12 -50 28 -68 39 -16 45 -14 53 26 8 35 -5 55 -40 61 -18 4 -29 -1 -41 -19z"
       id="path122"
       style="fill:#24a134;fill-opacity:1" />
    <path
       d="M1688 1538 c-9 -29 -22 -83 -29 -121 -15 -80 -10 -89 63 -108 50 -14 68 -8 49 14 -6 8 -8 27 -5 44 5 25 -12 129 -33 206 -9 33 -29 17 -45 -35z m39 -90 c-3 -8 -6 -5 -6 6 -1 11 2 17 5 13 3 -3 4 -12 1 -19z m22 -83 c1 -17 -1 -17 -9 -5 -5 8 -9 26 -9 40 0 23 1 23 9 5 5 -11 9 -29 9 -40z"
       id="path123"
       style="fill:#24a134;fill-opacity:1" />
    <path
       d="M1383 1558 c-32 -19 -33 -21 -33 -94 0 -61 3 -74 16 -74 9 0 27 -9 42 -20 15 -12 29 -17 34 -12 26 26 47 184 28 207 -17 20 -48 18 -87 -7z m64 -85 c-3 -10 -5 -2 -5 17 0 19 2 27 5 18 2 -10 2 -26 0 -35z"
       id="path124"
       style="fill:#24a134;fill-opacity:1" />
    <path
       d="M1522 1488 c-7 -7 -12 -24 -12 -38 0 -15 -7 -49 -15 -76 -28 -94 -19 -108 56 -83 49 17 57 28 70 91 10 51 10 58 -7 76 -20 20 -57 42 -71 42 -5 0 -14 -5 -21 -12z m59 -121 c-13 -13 -14 5 -3 43 l7 25 3 -29 c2 -16 -1 -33 -7 -39z"
       id="path125"
       style="fill:#24a134;fill-opacity:1" />
    <path
       d="M1346 1329 c-3 -17 -6 -35 -6 -38 0 -11 69 -33 80 -26 19 12 11 63 -12 79 -35 25 -55 20 -62 -15z"
       id="path126"
       style="fill:#24a134;fill-opacity:1" />
    <path
       d="M1636 1293 c-3 -4 -6 -26 -6 -49 0 -49 10 -58 80 -69 45 -7 45 -7 27 13 -10 11 -33 27 -50 36 l-32 16 38 0 c20 0 37 3 37 8 -1 10 -87 52 -94 45z"
       id="path127"
       style="fill:#24a134;fill-opacity:1" />
    <path
       d="M1528 1258 c-21 -7 -28 -16 -28 -35 0 -24 2 -24 43 -18 54 9 57 11 57 41 0 27 -22 31 -72 12z"
       id="path128"
       style="fill:#24a134;fill-opacity:1" />
    <path
       d="M1265 1194 c-68 -77 -71 -83 -48 -105 24 -25 170 -32 196 -10 27 22 36 71 20 111 -18 45 -38 60 -82 60 -31 0 -43 -8 -86 -56z m133 7 c6 -8 12 -26 11 -40 -1 -24 -2 -23 -10 7 -5 18 -18 38 -29 45 -11 6 -20 16 -20 21 0 9 28 -10 48 -33z"
       id="path129"
       style="fill:#24a134;fill-opacity:1" />
    <path
       d="M1444 1224 c3 -9 6 -20 6 -25 0 -6 5 -7 10 -4 16 10 12 45 -6 45 -11 0 -14 -5 -10 -16z"
       id="path130"
       style="fill:#24a134;fill-opacity:1" />
    <path
       d="M5873 1205 c-28 -13 -57 -33 -63 -45 -6 -11 -9 -20 -8 -21 2 -1 53 -2 115 -3 85 -2 118 -7 138 -20 14 -9 30 -14 35 -11 18 11 10 42 -14 58 -19 13 -147 69 -150 66 -1 0 -24 -11 -53 -24z"
       id="path131"
       style="fill:#24a134;fill-opacity:1" />
    <path
       d="M3535 1200 c-3 -5 -1 -10 4 -10 6 0 11 5 11 10 0 6 -2 10 -4 10 -3 0 -8 -4 -11 -10z"
       id="path132"
       style="fill:#24a134;fill-opacity:1" />
    <path
       d="M1535 1181 c-31 -6 -74 -67 -75 -104 0 -17 75 -122 128 -179 30 -33 62 -37 62 -9 0 11 -4 23 -10 26 -5 3 -10 25 -10 48 0 26 -10 61 -26 90 -14 27 -24 53 -22 59 2 6 19 -21 39 -58 l34 -69 22 22 c31 32 36 129 8 140 -24 9 -28 -3 -10 -31 16 -24 13 -52 -4 -41 -5 2 -21 29 -36 60 -30 58 -35 60 -100 46z"
       id="path133"
       style="fill:#24a134;fill-opacity:1" />
    <path
       d="M5848 1102 c-42 -9 -22 -63 31 -83 16 -7 32 -5 55 7 17 9 64 19 104 21 60 5 72 9 70 22 -2 10 -19 18 -48 23 -52 9 -187 16 -212 10z"
       id="path134"
       style="fill:#24a134;fill-opacity:1" />
    <path
       d="M5550 1056 c0 -101 23 -137 62 -98 20 19 20 24 7 81 -12 57 -15 61 -41 61 -26 0 -28 -3 -28 -44z"
       id="path135"
       style="fill:#24a134;fill-opacity:1" />
    <path
       d="M5631 1091 c-15 -10 20 -105 41 -109 9 -2 24 9 34 23 16 25 16 29 2 53 -17 27 -57 45 -77 33z"
       id="path136"
       style="fill:#24a134;fill-opacity:1" />
    <path
       d="M1265 1043 c-36 -6 -45 -17 -45 -63 0 -42 78 -189 97 -183 12 4 22 -12 38 -62 6 -19 7 -19 16 -2 13 23 29 22 29 -2 0 -22 49 -84 50 -63 0 8 8 10 26 6 37 -10 47 12 24 56 -10 20 -26 42 -34 49 -14 11 -16 11 -17 -5 0 -12 -4 -8 -10 11 -5 17 -8 45 -5 63 7 44 -29 138 -65 174 -27 27 -40 30 -104 21z"
       id="path137"
       style="fill:#24a134;fill-opacity:1" />
    <path
       d="M1404 1036 c-6 -15 19 -70 35 -81 18 -11 33 33 20 58 -20 37 -46 48 -55 23z"
       id="path138"
       style="fill:#24a134;fill-opacity:1" />
    <path
       d="M6043 1025 c-85 -19 -103 -30 -103 -65 0 -67 16 -73 96 -34 31 15 64 24 81 22 25 -4 26 -5 8 -12 -100 -37 -110 -43 -113 -61 -1 -11 4 -31 12 -45 8 -14 26 -49 41 -78 15 -30 35 -56 44 -59 9 -3 40 -16 69 -30 30 -14 57 -22 62 -17 36 36 -19 266 -67 285 -15 6 -23 17 -23 33 0 36 -17 76 -32 75 -7 0 -41 -7 -75 -14z"
       id="path139"
       style="fill:#24a134;fill-opacity:1" />
    <path
       d="M5721 1001 c-16 -29 -14 -37 14 -49 40 -19 46 -15 43 26 -2 29 -8 38 -25 40 -14 2 -26 -4 -32 -17z"
       id="path140"
       style="fill:#24a134;fill-opacity:1" />
    <path
       d="M5510 963 c0 -28 15 -53 33 -53 4 0 7 17 5 37 -2 27 -8 39 -20 41 -14 3 -18 -3 -18 -25z"
       id="path141"
       style="fill:#24a134;fill-opacity:1" />
    <path
       d="M5625 935 c-14 -13 -25 -29 -25 -36 0 -14 39 -79 47 -79 14 0 74 44 84 61 8 16 5 25 -20 49 -36 36 -54 38 -86 5z"
       id="path142"
       style="fill:#24a134;fill-opacity:1" />
    <path
       d="M1460 925 c-28 -34 34 -185 76 -185 12 0 12 4 -1 31 -18 34 -13 48 10 29 8 -7 15 -9 15 -4 -1 18 -28 123 -35 133 -9 16 -51 13 -65 -4z"
       id="path143"
       style="fill:#24a134;fill-opacity:1" />
    <path
       d="M5554 859 c3 -17 6 -35 6 -40 0 -5 7 -9 16 -9 13 0 15 7 10 31 -3 17 -6 35 -6 40 0 5 -7 9 -16 9 -13 0 -15 -7 -10 -31z"
       id="path144"
       style="fill:#24a134;fill-opacity:1" />
    <path
       d="M5336 845 c-3 -8 -1 -15 4 -15 6 0 10 7 10 15 0 8 -2 15 -4 15 -2 0 -6 -7 -10 -15z"
       id="path145"
       style="fill:#24a134;fill-opacity:1" />
    <path
       d="M5769 758 c-42 -47 -44 -62 -12 -110 24 -37 34 -43 68 -46 57 -5 105 6 105 24 0 9 -18 37 -40 63 -22 26 -40 52 -40 58 0 14 -28 43 -41 43 -6 0 -23 -15 -40 -32z"
       id="path146"
       style="fill:#24a134;fill-opacity:1" />
    <path
       d="M5952 578 c2 -13 10 -23 18 -23 8 0 16 10 18 23 3 17 -2 22 -18 22 -16 0 -21 -5 -18 -22z"
       id="path147"
       style="fill:#24a134;fill-opacity:1" />
    <path
       d="M5833 580 c-25 -10 -31 -45 -9 -53 13 -5 91 9 108 19 4 3 3 14 -2 25 -12 21 -57 25 -97 9z"
       id="path148"
       style="fill:#24a134;fill-opacity:1" />
  </g>
</svg>
